<svg width="69" height="64" viewBox="0 0 69 64" fill="none" xmlns="http://www.w3.org/2000/svg">
<path d="M1.61865 24.1338C1.70384 23.8332 1.87423 23.7884 2.30465 23.8332C4.75269 24.0889 15.5312 25.1206 30.5153 19.6214C45.7595 13.9518 53.9151 2.35241 55.3319 0.203881C55.5023 0.0334336 55.7624 -0.0517899 56.0179 0.0334336C57.0043 0.464037 59.6675 1.79621 63.0168 4.63102C66.8368 7.89643 68.4285 10.3006 68.9441 11.117C69.0293 11.2874 69.0293 11.5476 68.8589 11.718C66.7561 14.1222 50.9515 32.0775 33.4341 36.9756C16.1724 41.8288 4.27741 40.8824 2.34499 40.7972C1.87421 40.7972 1.61416 40.7972 1.52898 40.4114C1.18374 39.2497 0.627783 36.9307 0.582947 32.2479C0.627783 27.6503 1.35412 25.2013 1.61416 24.1293L1.61865 24.1338Z" fill="white"/>
<path d="M35.3217 45.4845C34.9764 45.2288 35.1513 44.5381 35.5772 44.4125C37.0792 43.8966 38.1957 43.7666 43.7777 41.1067C49.6153 38.2719 49.7902 37.6708 51.0321 36.9397C51.4626 36.684 51.9333 36.684 52.2786 37.0249C53.3501 37.9265 55.7982 39.6041 60.0486 43.5109C64.985 48.1085 67.8635 51.6295 68.7243 52.7016C68.8947 52.872 68.8947 53.3026 68.7243 53.5179C68.1235 54.3343 66.2359 56.6981 62.4115 59.6181C59.533 61.8519 56.4438 63.2244 55.027 63.7851C54.7266 63.9152 54.4262 63.83 54.211 63.5698C53.3098 62.4978 50.6465 59.0171 43.9929 53.047C40.6437 49.8668 36.9089 46.9064 35.3172 45.4845H35.3217Z" fill="white"/>
</svg>
